name processed_emg_signals												
nRows=96												
nColumns=7												
 												
endheader												
time	RGLTMED	RRF	RADDLONG	RST	RTA	RGM						
0.617	0.05716457	0.068207855	0.033627252	0.076339548	0.738863765	0.058896806						
0.618	0.058559944	0.069063117	0.033758022	0.076359681	0.743875028	0.059328817						
0.619	0.059977113	0.069926186	0.033893705	0.076409879	0.748752252	0.059757625						
0.62	0.061415493	0.070796593	0.034034134	0.076489921	0.753490266	0.060182951						
0.621	0.062874475	0.071673857	0.034179136	0.076599557	0.758083926	0.060604514						
0.622	0.064353425	0.072557476	0.034328534	0.076738511	0.762528118	0.061022032						
0.623	0.065851685	0.073446934	0.034482144	0.076906474	0.766817766	0.061435221						
0.624	0.067368572	0.074341699	0.034639781	0.077103114	0.770947841	0.061843796						
0.625	0.068903379	0.075241222	0.034801252	0.07732807	0.774913362	0.06224747						
0.626	0.070455375	0.076144941	0.034966363	0.077580956	0.778709408	0.062645957						
0.627	0.072023809	0.077052278	0.035134913	0.077861362	0.782331123	0.063038971						
0.628	0.073607903	0.077962643	0.0353067	0.078168851	0.785773718	0.063426225						
0.629	0.075206861	0.07887543	0.035481518	0.078502964	0.789032487	0.063807436						
0.63	0.076819863	0.079790024	0.035659157	0.078863219	0.792102805	0.064182319						
0.631	0.07844607	0.080705795	0.035839405	0.07924911	0.794980139	0.064550592						
0.632	0.080084621	0.081622103	0.036022049	0.079660111	0.797660054	0.064911977						
0.633	0.081734638	0.082538298	0.03620687	0.080095675	0.800138222	0.065266197						
0.634	0.083395221	0.083453722	0.036393652	0.080555232	0.802410426	0.065612979						
0.635	0.085065454	0.084367704	0.036582173	0.081038196	0.804472567	0.065952056						
0.636	0.086744402	0.085279569	0.036772213	0.081543959	0.806320674	0.066283162						
0.637	0.088431113	0.086188634	0.036963549	0.082071895	0.80795091	0.066606039						
0.638	0.090124619	0.087094211	0.037155958	0.082621362	0.809359576	0.066920435						
0.639	0.091823935	0.087995605	0.037349216	0.083191697	0.810543123	0.067226101						
0.64	0.093528065	0.08889212	0.037543099	0.083782225	0.811498156	0.067522798						
0.641	0.095235993	0.089783054	0.037737384	0.084392252	0.812221443	0.067810295						
0.642	0.096946695	0.090667706	0.037931847	0.085021069	0.812709921	0.068088366						
0.643	0.098659131	0.091545373	0.038126265	0.085667953	0.812960702	0.068356797						
0.644	0.100372249	0.092415354	0.038320415	0.086332168	0.812971082	0.06861538						
0.645	0.102084989	0.093276948	0.038514079	0.087012962	0.812738548	0.068863919						
0.646	0.103796276	0.094129457	0.038707035	0.087709573	0.812260783	0.069102229						
0.647	0.10550503	0.094972188	0.038899066	0.088421224	0.811535673	0.069330133						
0.648	0.10721016	0.095804453	0.039089956	0.08914713	0.810561315	0.069547467						
0.649	0.108910567	0.096625569	0.039279492	0.08988649	0.809336024	0.069754081						
0.65	0.110605147	0.097434863	0.039467462	0.090638499	0.807858333	0.069949834						
0.651	0.112292787	0.098231667	0.039653657	0.091402337	0.806127009	0.0701346						
0.652	0.113972373	0.099015327	0.039837872	0.092177178	0.80414105	0.070308265						
0.653	0.115642783	0.099785198	0.040019904	0.092962186	0.801899694	0.070470731						
0.654	0.117302893	0.100540646	0.040199554	0.093756519	0.799402423	0.070621914						
0.655	0.118951578	0.101281054	0.040376626	0.094559325	0.79664897	0.070761742						
0.656	0.12058771	0.102005816	0.040550928	0.095369748	0.79363932	0.070890162						
0.657	0.122210161	0.102714343	0.040722273	0.096186925	0.790373717	0.071007134						
0.658	0.123817806	0.103406063	0.040890476	0.097009988	0.786852665	0.071112635						
0.659	0.125409517	0.104080422	0.04105536	0.097838063	0.783076934	0.071206657						
0.66	0.126984175	0.104736883	0.04121675	0.098670272	0.779047559	0.071289211						
0.661	0.128540659	0.105374932	0.041374477	0.099505734	0.774765846	0.071360323						
0.662	0.130077856	0.105994071	0.041528377	0.100343565	0.770233373	0.071420034						
0.663	0.131594661	0.10659383	0.041678291	0.101182878	0.765451988	0.071468407						
0.664	0.133089972	0.107173755	0.041824065	0.102022783	0.760423815	0.071505519						
0.665	0.134562698	0.10773342	0.041965554	0.10286239	0.755151251	0.071531465						
0.666	0.136011759	0.108272422	0.042102614	0.103700806	0.749636964	0.071546357						
0.667	0.137436084	0.108790383	0.042235112	0.10453714	0.743883896	0.071550326						
0.668	0.138834615	0.109286948	0.042362918	0.105370498	0.737895261	0.07154352						
0.669	0.140206307	0.109761793	0.042485909	0.10619999	0.73167454	0.071526104						
0.67	0.14155013	0.110214618	0.04260397	0.107024724	0.725225482	0.071498261						
0.671	0.142865072	0.110645151	0.042716992	0.10784381	0.718552097	0.071460193						
0.672	0.144150135	0.111053147	0.042824872	0.108656361	0.711658657	0.071412118						
0.673	0.145404343	0.111438391	0.042927516	0.109461493	0.704549688	0.07135427						
0.674	0.14662674	0.111800696	0.043024836	0.110258322	0.697229967	0.071286903						
0.675	0.147816389	0.112139903	0.04311675	0.11104597	0.689704516	0.071210286						
0.676	0.148972378	0.112455885	0.043203185	0.111823562	0.681978594	0.071124706						
0.677	0.15009382	0.112748541	0.043284077	0.112590227	0.674057696	0.071030466						
0.678	0.151179852	0.113017802	0.043359365	0.113345099	0.665947539	0.070927884						
0.679	0.152229639	0.113263628	0.043428999	0.114087317	0.65765406	0.070817298						
0.68	0.153242374	0.113486008	0.043492936	0.114816026	0.649183404	0.070699057						
0.681	0.15421728	0.113684962	0.04355114	0.115530377	0.640541919	0.070573528						
0.682	0.155153612	0.113860537	0.043603583	0.116229527	0.631736143	0.070441093						
0.683	0.156050657	0.114012812	0.043650245	0.116912642	0.622772798	0.070302147						
0.684	0.156907736	0.114141893	0.043691111	0.117578895	0.613658778	0.070157101						
0.685	0.157724203	0.114247914	0.043726178	0.118227465	0.604401139	0.070006378						
0.686	0.158499452	0.114331038	0.043755446	0.118857543	0.595007091	0.069850416						
0.687	0.159232911	0.114391456	0.043778925	0.119468327	0.585483983	0.069689664						
0.688	0.15992405	0.114429385	0.043796632	0.120059028	0.575839294	0.069524584						
0.689	0.160572377	0.114445069	0.043808591	0.120628863	0.566080622	0.06935565						
0.69	0.161177441	0.114438776	0.04381483	0.121177065	0.556215674	0.069183344						
0.691	0.161738834	0.1144108	0.043815389	0.121702875	0.54625225	0.069008163						
0.692	0.162256189	0.114361459	0.043810312	0.122205551	0.536198235	0.068830611						
0.693	0.162729184	0.114291094	0.043799647	0.12268436	0.526061584	0.068651201						
0.694	0.163157542	0.114200068	0.043783453	0.123138587	0.515850316	0.068470455						
0.695	0.16354103	0.114088764	0.043761792	0.123567528	0.505572493	0.068288903						
0.696	0.163879463	0.113957587	0.043734732	0.123970499	0.495236216	0.068107081						
0.697	0.164172699	0.113806959	0.043702347	0.12434683	0.484849608	0.067925531						
0.698	0.164420647	0.113637323	0.043664717	0.124695868	0.474420808	0.067744803						
0.699	0.164623261	0.113449135	0.043621925	0.125016982	0.46395795	0.067565448						
0.7	0.164780544	0.11324287	0.043574061	0.125309556	0.45346916	0.067388025						
0.701	0.164892545	0.113019014	0.043521217	0.125572996	0.44296254	0.067213092						
0.702	0.164959363	0.112778069	0.043463493	0.125806731	0.432446158	0.067041212						
0.703	0.164981146	0.112520548	0.043400988	0.126010209	0.421928034	0.066872949						
0.704	0.164958087	0.112246973	0.043333808	0.126182904	0.411416135	0.066708868						
0.705	0.164890429	0.111957878	0.043262062	0.126324311	0.400918358	0.066549531						
0.706	0.164778464	0.111653805	0.043185862	0.126433953	0.390442522	0.066395503						
0.707	0.164622529	0.111335299	0.043105321	0.126511378	0.379996357	0.066247344						
0.708	0.164423009	0.111002915	0.043020558	0.12655616	0.369587495	0.066105613						
0.709	0.164180338	0.110657209	0.04293169	0.126567903	0.359223462	0.065970864						
0.71	0.163894992	0.110298743	0.042838839	0.126546239	0.348911661	0.065843646						
0.711	0.163567495	0.109928078	0.042742129	0.126490829	0.338659373	0.065724503						
0.712	0.163198414	0.109545777	0.042641684	0.126401367	0.328473741	0.065613973						
